<?xml version="1.0" encoding="UTF-8" standalone="no"?>
<svg
   width="24"
   height="24"
   viewBox="0 0 24 24"
   version="1.1"
   id="svg1"
   xml:space="preserve"
   xmlns="http://www.w3.org/2000/svg"
   xmlns:svg="http://www.w3.org/2000/svg"><defs
     id="defs1"><mask
       maskUnits="userSpaceOnUse"
       id="mask-powermask-path-effect46"><path
         id="mask-powermask-path-effect46_box"
         style="fill:#ffffff;fill-opacity:1"
         d="M -0.39081344,-0.57958372 H 24.37049 V 20.943075 H -0.39081344 Z" /><g
         id="g46"
         style=""><path
           style="fill:#000000;fill-opacity:0;stroke:#000000;stroke-width:0.54375;stroke-linecap:round;stroke-linejoin:round;stroke-dasharray:none;stroke-opacity:1;paint-order:normal"
           d="m 8.0798005,13.326682 c 0,0 1.2269327,-1.077306 2.4139655,-1.107231"
           id="path32" /><path
           style="fill:#000000;fill-opacity:0;stroke:#000000;stroke-width:0.54375;stroke-linecap:round;stroke-linejoin:round;stroke-dasharray:none;stroke-opacity:1;paint-order:normal"
           d="m 9.3366584,15.411471 c 0,0 0.8079796,-1.905237 1.8952616,-2.304239"
           id="path33" /><path
           style="fill:#000000;fill-opacity:0;stroke:#000000;stroke-width:0.54375;stroke-linecap:round;stroke-linejoin:round;stroke-dasharray:none;stroke-opacity:1;paint-order:normal"
           d="m 16.478803,15.361596 c 0,0 -1.147132,-2.164589 -2.074813,-2.304239"
           id="path34" /><path
           style="fill:#000000;fill-opacity:0;stroke:#000000;stroke-width:0.54375;stroke-linecap:round;stroke-linejoin:round;stroke-dasharray:none;stroke-opacity:1;paint-order:normal"
           d="m 17.316708,14.254364 c 0,0 -1.556109,-1.566085 -2.394015,-1.625935"
           id="path35" /><path
           style="fill:#000000;fill-opacity:0;stroke:#000000;stroke-width:0.54375;stroke-linecap:round;stroke-linejoin:round;stroke-dasharray:none;stroke-opacity:1;paint-order:normal"
           d="m 17.685786,13.047382 c 0,0 -1.566085,-0.927681 -2.533666,-0.897756"
           id="path36" /><path
           style="fill:#000000;fill-opacity:0;stroke:#000000;stroke-width:0.54375;stroke-linecap:round;stroke-linejoin:round;stroke-dasharray:none;stroke-opacity:1;paint-order:normal"
           d="m 8.478803,14.573566 c 0,0 1.0773067,-1.57606 2.36409,-1.965087"
           id="path37" /><path
           style="fill:#000000;fill-opacity:0;stroke:#000000;stroke-width:0.54375;stroke-linecap:round;stroke-linejoin:round;stroke-dasharray:none;stroke-opacity:1;paint-order:normal"
           d="m 15.700945,7.3214647 c 0,0 0.860519,-0.8605189 1.763358,-0.028214"
           id="path38" /><path
           style="fill:#000000;fill-opacity:0;stroke:#000000;stroke-width:0.54375;stroke-linecap:round;stroke-linejoin:round;stroke-dasharray:none;stroke-opacity:1;paint-order:normal"
           d="m 7.9421669,7.5753884 c 0,0 0.8040915,-1.0298014 1.7774655,-0.1692825"
           id="path39" /><path
           style="fill:#000000;fill-opacity:0;stroke:#000000;stroke-width:0.54375;stroke-linecap:round;stroke-linejoin:round;stroke-dasharray:none;stroke-opacity:1;paint-order:normal"
           d="m 7.6844051,13.87089 c 0,0 -3.6219568,-2.085638 -4.6792269,2.105762 C 2.1815704,19.24173 -13.645393,12.806516 -13.645393,12.806516"
           id="path40" /><path
           style="fill:#000000;fill-opacity:0;stroke:#000000;stroke-width:0.54375;stroke-linecap:round;stroke-linejoin:round;stroke-dasharray:none;stroke-opacity:1;paint-order:normal"
           d="m 14.00812,11.793342 c -0.06451,1.057653 -2.09416,0.174199 -0.691237,-0.775878 0.371421,-0.251531 0.331495,-0.901928 -0.451419,-0.916946 -0.873419,-0.01675 -1.005968,0.637315 -0.606595,0.924 1.436789,1.031382 -0.522447,1.771486 -0.627757,0.797038"
           id="path41" /><ellipse
           style="fill:#ff0000;fill-opacity:0;stroke:#000000;stroke-width:0.544331;stroke-dasharray:none;stroke-opacity:1"
           id="ellipse41"
           cx="12.820312"
           cy="11.390624"
           rx="2.3946545"
           ry="2.1211736"
           d="m 15.214966,11.390624 a 2.3946545,2.1211736 0 0 1 -2.394654,2.121174 2.3946545,2.1211736 0 0 1 -2.394655,-2.121174 2.3946545,2.1211736 0 0 1 2.394655,-2.1211736 2.3946545,2.1211736 0 0 1 2.394654,2.1211736 z" /><path
           style="fill:#000000;fill-opacity:0;stroke:#000000;stroke-width:0.54375;stroke-linecap:round;stroke-linejoin:round;stroke-dasharray:none;stroke-opacity:1;paint-order:normal"
           d="m 8.3427759,16.306928 c 0,0 -0.4907848,2.826626 -8.6901107,6.85542"
           id="path42" /><ellipse
           style="fill:#000000;fill-opacity:0;stroke:#000000;stroke-width:0.655915;stroke-linecap:round;stroke-linejoin:round;stroke-dasharray:none;stroke-opacity:1;paint-order:normal"
           id="ellipse42"
           cx="8.9437943"
           cy="9.5238447"
           rx="1.2533367"
           ry="1.2588608"
           d="M 10.197131,9.5238447 A 1.2533367,1.2588608 0 0 1 8.9437943,10.782706 1.2533367,1.2588608 0 0 1 7.6904576,9.5238447 1.2533367,1.2588608 0 0 1 8.9437943,8.2649839 1.2533367,1.2588608 0 0 1 10.197131,9.5238447 Z" /><ellipse
           style="fill:#000000;fill-opacity:0;stroke:#000000;stroke-width:0.694669;stroke-linecap:round;stroke-linejoin:round;stroke-dasharray:none;stroke-opacity:1;paint-order:normal"
           id="ellipse43"
           cx="16.804838"
           cy="9.4630756"
           rx="1.2323118"
           ry="1.2378361"
           d="M 18.03715,9.4630756 A 1.2323118,1.2378361 0 0 1 16.804838,10.700912 1.2323118,1.2378361 0 0 1 15.572526,9.4630756 1.2323118,1.2378361 0 0 1 16.804838,8.2252395 1.2323118,1.2378361 0 0 1 18.03715,9.4630756 Z" /><path
           style="fill:#000000;fill-opacity:0;stroke:#000000;stroke-width:0.54375;stroke-linecap:round;stroke-linejoin:round;stroke-dasharray:none;stroke-opacity:1;paint-order:normal"
           d="m 5.4840498,12.283146 c 0,0 -1.9385366,-6.7693493 4.3683931,-9.0011108 C 15.168453,1.4009194 17.68593,4.6346129 17.68593,4.6346129"
           id="path43" /><path
           style="fill:#000000;fill-opacity:0;stroke:#000000;stroke-width:0.54375;stroke-linecap:round;stroke-linejoin:round;stroke-dasharray:none;stroke-opacity:1;paint-order:normal"
           d="m 18.71875,15.608034 c 0,0 -1.539904,3.445464 -8.431021,6.604585"
           id="path44" /><path
           style="fill:#000000;fill-opacity:0;stroke:#000000;stroke-width:0.5;stroke-linecap:round;stroke-dasharray:none;stroke-opacity:1"
           d="m 22.583223,8.0654367 c 0,0 -0.204383,-2.8681766 -1.451266,-4.0466778"
           id="path45" /><path
           style="fill:#000000;fill-opacity:0;stroke:#000000;stroke-width:0.5;stroke-linecap:round;stroke-dasharray:none;stroke-opacity:1"
           d="m 20.269531,8.515625 c 0,0 0.367187,-0.9609375 -0.07031,-2.0546875 -0.4375,-1.09375 -0.609375,-1.28125 -0.59375,-2.2578125"
           id="path46" /></g></mask></defs><path
     fill="currentColor"
     d="M 10.326733,3.07004 C 9.6733199,3.1189708 7.6032015,4.8196963 6.8943526,4.9966005 4.7600998,5.5292361 1.4810383,7.2257839 1.790227,12.669585 c 0.2008487,3.536288 1.950066,2.75927 0.8141564,4.129262 -5.1028776,2.993955 0.8763793,4.246302 3.5772265,1.985217 4.0674111,1.984542 9.2467651,0.496735 11.0838681,-1.538548 0.304897,-0.337788 1.137388,0.732437 1.795101,1.977581 0.473697,0.896776 5.177363,1.802794 0.657051,-4.414883 -0.325948,-0.44834 -0.06649,-0.625777 0.06952,-1.420027 0.284793,-1.663139 2.996816,-1.377977 3.525185,-4.8378246 C 23.653977,6.313234 22.373568,5.8116915 22.495967,6.3636216 22.64441,7.0329934 21.998891,5.9165644 21.670667,5.242359 20.855383,3.5676853 19.737925,4.1283869 19.812322,4.6139199 19.882309,5.0706715 19.474329,5.3484191 19.415863,4.7358761 19.3917,4.4827231 19.355221,3.5000513 19.362999,3.3027198 19.491686,0.0379417 17.648246,-0.52646089 17.096902,1.9846867 16.628777,4.1168034 16.84504,3.6407824 15.321696,3.2219451 10.93447,2.015695 11.829667,2.9574931 10.326733,3.07004 Z"
     id="path5"
     mask="url(#mask-powermask-path-effect46)" /></svg>
